<svg width="400" height="400" xmlns="http://www.w3.org/2000/svg" xmlns:xlink="http://www.w3.org/1999/xlink" xml:space="preserve" overflow="hidden"><defs><clipPath id="clip0"><rect x="866" y="316" width="400" height="400"/></clipPath></defs><g clip-path="url(#clip0)" transform="translate(-866 -316)"><path d="M183.2 382.133C164 377.733 149.333 369.333 135.6 354.667 125.467 344 118.8 332.533 114.4 318.667 110 304.4 110 280.933 114.4 266.667 119.2 251.467 125.867 240.667 137.867 228.533 156.667 209.733 175.067 202 201.333 202 227.6 202 246 209.733 264.8 228.533 276.8 240.667 283.467 251.467 288.267 266.667 292.667 280.933 292.667 304.4 288.267 318.667 283.467 333.867 276.8 344.667 264.8 356.8 247.067 374.533 229.2 382.4 204.667 383.467 196.133 383.733 188.4 383.333 183.2 382.133ZM218 374C223.2 372.933 232.4 369.6 238.533 366.533 270.4 350.8 289.2 313.2 282.667 278.667 281.867 274.667 281.067 271.333 280.8 271.067 280.533 270.667 274.4 273.6 267.2 277.333 254.8 283.867 253.6 284.267 246 283.733 239.867 283.333 234.8 281.733 224 276.667 204.933 267.6 199.6 267.6 179.733 276.4 160.667 284.8 156 284.8 138.667 276.667 131.733 273.333 125.067 270.667 123.867 270.667 121.067 270.667 120.133 274.133 119.2 288 115.6 341.733 165.333 385.067 218 374ZM266.133 272.267C273.067 268.8 278.667 265.2 278.667 264.267 278.667 263.2 276.4 258.133 273.733 252.8 266.4 238.933 252.933 225.867 238.533 218.8 213.333 206.4 189.333 206.4 164.133 218.8 149.733 225.867 136.267 238.933 128.933 252.8 123.067 264.267 122.8 266.667 127.467 266.667 129.333 266.667 135.467 269.067 141.067 272 156.667 280.133 158.267 280.133 177.333 272 186.4 268 196.4 264.667 200 264.267 206.4 263.733 210 264.933 237.333 276.8 246.533 280.8 250 280.267 266.133 272.267Z" transform="matrix(1 0 0 -1 866 716)"/><path d="M181.6 336.533C166.267 332 154 326.267 151.333 322.267 149.333 319.067 149.333 318.267 151.2 311.733 154.267 301.333 170.933 282.667 177.067 282.667 180.667 282.667 184 286.133 184 289.733 184 293.6 181.2 297.6 172.267 306.933 168.267 311.067 165.333 314.933 165.867 315.733 166.267 316.4 173.867 321.733 182.667 327.467 191.467 333.2 198.667 338.4 198.667 338.933 198.667 340.8 193.067 340 181.6 336.533Z" transform="matrix(1 0 0 -1 866 716)"/><path d="M196.533 306.8C190.267 302.933 188 298.933 188 291.733 188 286.267 188.667 284.533 192.533 280.267 196.8 275.733 197.733 275.333 204.533 275.333 211.333 275.333 212.4 275.733 216.8 280.133 225.333 288.8 223.733 300.133 213.067 306.667 207.6 310 201.867 310 196.533 306.8Z" transform="matrix(1 0 0 -1 866 716)"/><path d="M83.3333 208.8C50 201.067 25.6 179.2 15.0667 147.333 12 138.133 11.4667 134.533 11.4667 120 11.4667 105.467 12 101.867 15.0667 92.6667 19.8667 78.1333 27.0667 66.5333 37.4667 56.1333 48.1333 45.6 59.6 38.5333 74 33.7333 83.2 30.6667 86.8 30.1333 101.333 30.1333 115.867 30.1333 119.467 30.6667 128.667 33.7333 143.067 38.5333 154.667 45.6 165.2 56.1333 175.733 66.6667 182.8 78.2667 187.6 92.6667 190.667 101.867 191.2 105.467 191.2 120 191.2 134.533 190.667 138.133 187.6 147.333 175.333 184.4 143.333 208.533 104.667 210.133 96.1333 210.4 88.4 210 83.3333 208.8ZM118 200.667C157.467 192.4 186.4 154.8 183.467 115.333 182.8 105.333 179.867 93.4667 175.867 84.9333L174.133 81.2 171.733 89.0667C168.8 98.6667 161.067 107.867 152.533 112 144.533 115.867 129.067 115.333 120.267 110.8 96.9333 98.8 84.5333 68.2667 93.3333 45.0667 94.8 41.3333 95.7333 38 95.4667 37.7333 95.2 37.4667 90.6667 38.1333 85.3333 39.2 72.5333 41.8667 58.6667 48.4 58.6667 51.6 58.6667 57.8667 55.7333 98.8 54 116.4 51.8667 138.133 49.8667 144.267 43.7333 147.467 40.1333 149.333 39.7333 149.333 36 145.467 32.8 142.267 32 140.4 32 135.6 32 128.8 36 110.267 44.4 78.4 47.6 66 49.7333 56 49.3333 56 48.8 56 45.8667 58.8 42.6667 62.1333 37.8667 67.4667 37.2 68.8 37.8667 72.5333 38.9333 78.1333 36.4 91.2 33.2 97.7333 31.7333 100.533 27.8667 105.467 24.5333 108.533 19.2 113.733 18.6667 114.8 18.6667 120.8 18.6667 131.6 22.2667 145.333 28.1333 157.2 44.2667 190 82 208.267 118 200.667ZM146 109.2C157.333 106.267 166.4 94.8 168.8 80.2667 169.467 76 169.067 73.8667 166.667 70.1333 158.933 57.4667 136.267 43.2 118 39.3333 104.533 36.5333 103.067 36.6667 100 41.6 87.2 62.6667 101.067 98.4 125.733 107.867 133.733 110.933 137.867 111.2 146 109.2Z" transform="matrix(1 0 0 -1 866 716)"/><path d="M120.133 189.733C107.467 183.333 107.733 164.267 120.533 158.133 126.133 155.467 129.467 155.467 135.2 157.867 144.4 161.733 148.667 172.4 144.4 180.933 139.733 190.4 129.067 194.267 120.133 189.733Z" transform="matrix(1 0 0 -1 866 716)"/><path d="M90.6667 166.667C87.3333 163.333 87.3333 162.133 91.2 154 100.4 134.267 121.467 122 148.667 120.667 160.667 120 160.667 120 154 121.733 143.733 124.533 128.4 132.8 121.067 139.733 116.8 143.733 112.533 149.733 109.2 156.267 106.4 161.867 102.8 167.2 101.467 168 97.4667 170.133 93.6 169.6 90.6667 166.667Z" transform="matrix(1 0 0 -1 866 716)"/><path d="M56 144.133C51.8667 136.4 56.4 130.933 72.4 124.667 77.3333 122.667 81.3333 120.533 81.3333 119.867 81.3333 119.2 77.2 110.267 72 100 58.2667 72.6667 59.0667 72.1333 80.4 95.2 101.467 118.133 103.067 124.933 89.8667 135.733 77.8667 145.733 59.3333 150.267 56 144.133Z" transform="matrix(1 0 0 -1 866 716)"/><path d="M284.667 208.533C258.667 202.933 235.6 184.8 224 160.667 206 123.467 215.2 80.9333 247.333 53.6 260.8 42 284.8 33.3333 303.333 33.3333 336.4 33.3333 368.267 53.4667 382.667 83.3333 400.667 120.533 391.467 163.067 359.333 190.4 340.267 206.8 310.533 214 284.667 208.533ZM322.4 200.667C338.667 196.8 355.067 186.4 366.267 172.667 390 143.733 390 100.267 366.267 71.3333 355.067 57.6 338.667 47.2 322.4 43.3333 307.333 39.8667 284.667 41.4667 272.8 46.8 269.2 48.5333 269.333 48.5333 278 51.4667 289.333 55.3333 296.133 60 299.733 66.5333 302.133 70.8 302.4 72.4 301.333 75.4667 297.733 84.8 275.867 105.333 262.933 111.467 249.867 117.6 242.667 115.6 242.667 105.467 242.667 102 243.733 99.6 246.933 96.4L251.067 92 244.533 84.8C240.933 80.9333 237.333 77.6 236.533 77.4667 234.4 77.3333 226.933 93.3333 224.667 103.067 222.133 113.733 222.133 130.4 224.667 141.067 231.333 169.333 255.6 193.733 283.733 200.533 293.867 203.067 312 203.067 322.4 200.667ZM277.067 76C279.333 74.5333 281.333 72.5333 281.333 71.6 281.333 68.9333 276.533 65.0667 266.533 59.6L257.733 54.8 253.467 58.4 249.333 62 260.267 70.2667C266.4 74.8 271.6 78.5333 272 78.5333 272.4 78.6667 274.667 77.4667 277.067 76Z" transform="matrix(1 0 0 -1 866 716)"/><path d="M252.667 176.933C247.333 174.4 241.733 168.533 238.267 162 235.2 156 233.467 135.067 235.6 129.467 236.8 126.667 237.067 127.2 239.2 134.8 244.8 154.8 253.867 164.933 262.8 161.467 264.533 160.8 270.133 156.933 275.067 152.8 285.6 144.133 291.6 142.933 294.533 148.533 301.867 162.133 269.067 184.4 252.667 176.933Z" transform="matrix(1 0 0 -1 866 716)"/><path d="M316 170.267C312.133 168.267 306.667 160.667 306.667 157.067 306.667 152.133 310.533 145.333 314.933 142.667 324.267 136.933 336.267 141.2 339.867 151.333 341.467 156 341.333 157.333 339.6 161.6 335.867 170.4 324.533 174.533 316 170.267Z" transform="matrix(1 0 0 -1 866 716)"/><path d="M376.933 138.133C374 130.933 365.733 121.333 358 116 347.867 108.933 342.133 111.2 337.333 124 334.4 131.733 329.6 137.333 325.867 137.333 322.8 137.333 318.667 130.533 318.667 125.467 318.667 114.4 331.067 98.4 340.933 96.5333 356.8 93.6 380.933 119.333 379.733 138L379.333 144 376.933 138.133Z" transform="matrix(1 0 0 -1 866 716)"/></g></svg>